<svg width="17" height="16" viewBox="0 0 17 16" fill="none" xmlns="http://www.w3.org/2000/svg">
<path d="M8.5 1.5C7.21443 1.5 5.95772 1.88122 4.8888 2.59545C3.81988 3.30968 2.98676 4.32484 2.49479 5.51256C2.00282 6.70028 1.87409 8.00721 2.1249 9.26809C2.3757 10.529 2.99477 11.6872 3.90381 12.5962C4.81285 13.5052 5.97104 14.1243 7.23192 14.3751C8.49279 14.6259 9.79973 14.4972 10.9874 14.0052C12.1752 13.5132 13.1903 12.6801 13.9046 11.6112C14.6188 10.5423 15 9.28558 15 8C14.9982 6.27665 14.3128 4.62441 13.0942 3.40582C11.8756 2.18722 10.2234 1.50182 8.5 1.5ZM11.3538 8.35375L9.35375 10.3538C9.25993 10.4476 9.13269 10.5003 9 10.5003C8.86732 10.5003 8.74007 10.4476 8.64625 10.3538C8.55243 10.2599 8.49973 10.1327 8.49973 10C8.49973 9.86732 8.55243 9.74007 8.64625 9.64625L9.79313 8.5H6C5.8674 8.5 5.74022 8.44732 5.64645 8.35355C5.55268 8.25979 5.5 8.13261 5.5 8C5.5 7.86739 5.55268 7.74022 5.64645 7.64645C5.74022 7.55268 5.8674 7.5 6 7.5H9.79313L8.64625 6.35375C8.55243 6.25993 8.49973 6.13268 8.49973 6C8.49973 5.86732 8.55243 5.74007 8.64625 5.64625C8.74007 5.55243 8.86732 5.49972 9 5.49972C9.13269 5.49972 9.25993 5.55243 9.35375 5.64625L11.3538 7.64625C11.4002 7.69269 11.4371 7.74783 11.4623 7.80853C11.4874 7.86923 11.5004 7.93429 11.5004 8C11.5004 8.06571 11.4874 8.13077 11.4623 8.19147C11.4371 8.25217 11.4002 8.30731 11.3538 8.35375Z" fill="url(#paint0_linear_3706_808)"/>
<defs>
<linearGradient id="paint0_linear_3706_808" x1="8.5" y1="-4.33333" x2="8.5" y2="14.5" gradientUnits="userSpaceOnUse">
<stop stop-color="white" stop-opacity="0.4"/>
<stop offset="0.667778" stop-color="white"/>
</linearGradient>
</defs>
</svg>
